<svg height="512" viewBox="0 0 64 64" width="512" xmlns="http://www.w3.org/2000/svg"><g id="Bill-2" data-name="Bill"><path d="m55.316 2.051a1 1 0 0 0 -1.116.349l-2.2 2.933-2.2-2.933a1.036 1.036 0 0 0 -1.6 0l-2.2 2.933-2.2-2.933a1.036 1.036 0 0 0 -1.6 0l-2.2 2.933-2.2-2.933a1.036 1.036 0 0 0 -1.6 0l-2.2 2.933-2.2-2.933a1.036 1.036 0 0 0 -1.6 0l-2.2 2.933-2.2-2.933a1.036 1.036 0 0 0 -1.6 0l-2.2 2.933-2.2-2.933a1.036 1.036 0 0 0 -1.6 0l-2.2 2.933-2.2-2.933a1 1 0 0 0 -1.8.6v8.214a10.98 10.98 0 0 0 0 19.572v30.214a1 1 0 0 0 1.8.6l2.2-2.933 2.2 2.933a1.036 1.036 0 0 0 1.6 0l2.2-2.933 2.2 2.933a1.036 1.036 0 0 0 1.6 0l2.2-2.933 2.2 2.933a1.036 1.036 0 0 0 1.6 0l2.2-2.933 2.2 2.933a1.036 1.036 0 0 0 1.6 0l2.2-2.933 2.2 2.933a1.036 1.036 0 0 0 1.6 0l2.2-2.933 2.2 2.933a1.036 1.036 0 0 0 1.6 0l2.2-2.933 2.2 2.933a1 1 0 0 0 .8.4 1.019 1.019 0 0 0 .316-.051 1 1 0 0 0 .684-.949v-58a1 1 0 0 0 -.684-.949zm-47.316 18.949a9 9 0 1 1 9 9 9.01 9.01 0 0 1 -9-9zm46 37-1.2-1.6a1.036 1.036 0 0 0 -1.6 0l-2.2 2.933-2.2-2.933a1.036 1.036 0 0 0 -1.6 0l-2.2 2.933-2.2-2.933a1.036 1.036 0 0 0 -1.6 0l-2.2 2.933-2.2-2.933a1.036 1.036 0 0 0 -1.6 0l-2.2 2.933-2.2-2.933a1.036 1.036 0 0 0 -1.6 0l-2.2 2.933-2.2-2.933a1.036 1.036 0 0 0 -1.6 0l-2.2 2.933-2.2-2.933a1.036 1.036 0 0 0 -1.6 0l-1.2 1.6v-26.426a11 11 0 1 0 0-21.148v-4.426l1.2 1.6a1.036 1.036 0 0 0 1.6 0l2.2-2.933 2.2 2.933a1.036 1.036 0 0 0 1.6 0l2.2-2.933 2.2 2.933a1.036 1.036 0 0 0 1.6 0l2.2-2.933 2.2 2.933a1.036 1.036 0 0 0 1.6 0l2.2-2.933 2.2 2.933a1.036 1.036 0 0 0 1.6 0l2.2-2.933 2.2 2.933a1.036 1.036 0 0 0 1.6 0l2.2-2.933 2.2 2.933a1.036 1.036 0 0 0 1.6 0l1.2-1.6z"/><path d="m40 16h10v2h-10z"/><path d="m40 20h10v2h-10z"/><path d="m30 26h14v2h-14z"/><path d="m46 26h4v2h-4z"/><path d="m27 30h17v2h-17z"/><path d="m46 30h4v2h-4z"/><path d="m18 34h26v2h-26z"/><path d="m46 34h4v2h-4z"/><path d="m18 38h26v2h-26z"/><path d="m46 38h4v2h-4z"/><path d="m18 42h26v2h-26z"/><path d="m46 42h4v2h-4z"/><path d="m34 48h10v2h-10z"/><path d="m46 48h4v2h-4z"/><path d="m18 28v-2a3 3 0 0 0 0-6h-2a1 1 0 0 1 0-2h2a1 1 0 0 1 1 1h2a3 3 0 0 0 -3-3v-2h-2v2a3 3 0 0 0 0 6h2a1 1 0 0 1 0 2h-2a1 1 0 0 1 -1-1h-2a3 3 0 0 0 3 3v2z"/></g></svg>