<svg width="35" height="41" viewBox="0 0 35 41" fill="none" xmlns="http://www.w3.org/2000/svg">
<path d="M23.0483 5.02872C22.6393 2.16204 20.144 0 17.2444 0C15.3796 0 13.6086 0.899856 12.5075 2.40797C12.2826 2.71553 12.3499 3.14697 12.6574 3.37188C12.964 3.59599 13.3964 3.5295 13.6209 3.22154C14.4638 2.06827 15.8181 1.37959 17.2442 1.37959C19.4618 1.37959 21.3696 3.03219 21.6824 5.22332C21.7318 5.56746 22.027 5.81582 22.3647 5.81582C22.3968 5.81582 22.4299 5.81339 22.4629 5.80895C22.8399 5.75499 23.102 5.4056 23.0483 5.02872Z" fill="#6D3587"/>
<path d="M33.0101 12.7503L30.9408 9.30146C30.8164 9.09352 30.5919 8.96661 30.3494 8.96661H28.3664C27.9857 8.96661 27.6767 9.27559 27.6767 9.65631C27.6767 10.037 27.9857 10.346 28.3664 10.346H29.959L31.2005 12.4153H3.28722L4.52879 10.346H5.2593C5.64002 10.346 5.949 10.037 5.949 9.65631C5.949 9.27559 5.64002 8.96661 5.2593 8.96661H4.13837C3.89588 8.96661 3.67137 9.09352 3.54689 9.30146L1.47761 12.7503C1.34969 12.9637 1.34666 13.2291 1.46892 13.4453C1.59117 13.6615 1.82033 13.7953 2.06909 13.7953H32.4186C32.6674 13.7953 32.8964 13.6615 33.0188 13.4453C33.1413 13.2291 33.1381 12.9633 33.0101 12.7503Z" fill="#6D3587"/>
<path d="M29.5722 6.39033C29.4756 6.23452 29.3214 6.12399 29.1431 6.08236L19.7402 3.88314C19.5622 3.84131 19.3747 3.87243 19.2191 3.96862C19.0639 4.06521 18.9531 4.2194 18.9115 4.39763L18.2024 7.42881C18.1155 7.79962 18.3459 8.17064 18.7169 8.25713C19.0877 8.34402 19.4591 8.11365 19.5456 7.74264L20.0977 5.38337L28.1572 7.26856L26.8908 12.6833C26.8039 13.0541 27.0343 13.4251 27.4053 13.5116C27.4584 13.5239 27.5112 13.5298 27.5633 13.5298C27.8765 13.5298 28.16 13.3152 28.2338 12.9973L29.6574 6.91108C29.6995 6.73305 29.6688 6.54552 29.5722 6.39033Z" fill="#6D3587"/>
<path d="M17.6087 8.02088L16.9802 2.70521C16.9588 2.52354 16.866 2.35763 16.7222 2.24447C16.5783 2.13131 16.3966 2.07957 16.2141 2.10099L4.67748 3.46462C4.29939 3.50948 4.02901 3.85221 4.07367 4.2307L5.12145 13.0965C5.16308 13.4475 5.46074 13.7056 5.80569 13.7056C5.83256 13.7056 5.86025 13.7037 5.88773 13.7007C6.26562 13.6558 6.536 13.3131 6.49154 12.9346L5.5246 4.75327L15.6914 3.55172L16.2386 8.18234C16.2835 8.56064 16.6246 8.8294 17.0047 8.78656C17.3828 8.7421 17.6531 8.39917 17.6087 8.02088Z" fill="#6D3587"/>
<path d="M23.064 12.8433L21.695 7.14995C21.6521 6.97232 21.5404 6.81854 21.3846 6.72296C21.2288 6.62818 21.0418 6.59848 20.863 6.64092L9.75132 9.3132C9.38091 9.40212 9.15297 9.77475 9.24188 10.1452L9.92612 12.9908C10.015 13.3616 10.3877 13.5898 10.7579 13.5003C11.1283 13.4114 11.3562 13.0387 11.2673 12.6683L10.7441 10.4931L20.5146 8.14377L21.7224 13.1662C21.7982 13.4825 22.0811 13.6947 22.3925 13.6947C22.4461 13.6947 22.5002 13.6884 22.5546 13.6753C22.925 13.5861 23.153 13.2137 23.064 12.8433Z" fill="#6D3587"/>
<path d="M33.1082 13.0702C33.0892 12.7037 32.7865 12.4159 32.4191 12.4159H2.06959C1.70221 12.4159 1.39949 12.7035 1.3805 13.0702L0.000908563 39.9709C-0.0087912 40.1597 0.0595115 40.3444 0.18965 40.4814C0.319991 40.6182 0.500648 40.696 0.689794 40.696H33.7983C33.9873 40.696 34.1681 40.6184 34.2991 40.4814C34.429 40.3444 34.4973 40.1599 34.4878 39.9709L33.1082 13.0702ZM1.41566 39.3164L2.72452 13.7953H31.7634L33.0723 39.3164H1.41566Z" fill="#6D3587"/>
<path d="M22.4174 15.1747C21.2763 15.1747 20.3481 16.1028 20.3481 17.244C20.3481 18.3851 21.2763 19.3132 22.4174 19.3132C23.5586 19.3132 24.4867 18.3851 24.4867 17.244C24.4867 16.1028 23.5586 15.1747 22.4174 15.1747ZM22.4174 17.9339C22.0369 17.9339 21.7277 17.6245 21.7277 17.2442C21.7277 16.8639 22.0371 16.5545 22.4174 16.5545C22.7977 16.5545 23.1071 16.8639 23.1071 17.2442C23.1071 17.6245 22.7977 17.9339 22.4174 17.9339Z" fill="#6D3587"/>
<path d="M12.0707 15.1747C10.9296 15.1747 10.0015 16.1028 10.0015 17.244C10.0015 18.3851 10.9296 19.3132 12.0707 19.3132C13.2119 19.3132 14.14 18.3851 14.14 17.244C14.14 16.1028 13.2119 15.1747 12.0707 15.1747ZM12.0707 17.9339C11.6904 17.9339 11.3811 17.6245 11.3811 17.2442C11.3811 16.8639 11.6904 16.5545 12.0707 16.5545C12.4511 16.5545 12.7604 16.8639 12.7604 17.2442C12.7604 17.6245 12.4511 17.9339 12.0707 17.9339Z" fill="#6D3587"/>
<path d="M22.4175 17.244H22.3643C21.9836 17.244 21.6746 17.5529 21.6746 17.9337C21.6746 18.0278 21.6932 18.1177 21.7278 18.1996V21.7273C21.7278 24.1993 19.7165 26.2108 17.2443 26.2108C14.772 26.2108 12.7607 24.1995 12.7607 21.7273V17.9339C12.7607 17.5531 12.4518 17.2442 12.071 17.2442C11.6903 17.2442 11.3813 17.5531 11.3813 17.9339V21.7275C11.3813 24.9603 14.0114 27.5904 17.2443 27.5904C20.4771 27.5904 23.1072 24.9603 23.1072 21.7275V17.9339C23.1072 17.5531 22.7982 17.244 22.4175 17.244Z" fill="#6D3587"/>
</svg>
