<?xml version="1.0" encoding="UTF-8" standalone="no"?>
<!-- Created with Inkscape (http://www.inkscape.org/) -->

<svg
   xmlns:dc="http://purl.org/dc/elements/1.1/"
   xmlns:cc="http://creativecommons.org/ns#"
   xmlns:rdf="http://www.w3.org/1999/02/22-rdf-syntax-ns#"
   xmlns:svg="http://www.w3.org/2000/svg"
   xmlns="http://www.w3.org/2000/svg"
   xmlns:sodipodi="http://sodipodi.sourceforge.net/DTD/sodipodi-0.dtd"
   xmlns:inkscape="http://www.inkscape.org/namespaces/inkscape"
   id="svg3001"
   version="1.1"
   inkscape:version="0.48.5 r10040"
   width="260"
   height="130"
   sodipodi:docname="Teletalk_New_Logo.jpg">
  <metadata
     id="metadata3007">
    <rdf:RDF>
      <cc:Work
         rdf:about="">
        <dc:format>image/svg+xml</dc:format>
        <dc:type
           rdf:resource="http://purl.org/dc/dcmitype/StillImage" />
        <dc:title></dc:title>
      </cc:Work>
    </rdf:RDF>
  </metadata>
  <defs
     id="defs3005" />
  <sodipodi:namedview
     pagecolor="#ffffff"
     bordercolor="#666666"
     borderopacity="1"
     objecttolerance="10"
     gridtolerance="10"
     guidetolerance="10"
     inkscape:pageopacity="0"
     inkscape:pageshadow="2"
     inkscape:window-width="1600"
     inkscape:window-height="837"
     id="namedview3003"
     showgrid="false"
     inkscape:zoom="0.5"
     inkscape:cx="168.04065"
     inkscape:cy="7.0237478"
     inkscape:window-x="-8"
     inkscape:window-y="-8"
     inkscape:window-maximized="1"
     inkscape:current-layer="svg3001" />
  <g
     id="g3011"
     transform="matrix(0.31758853,0,0,0.31758853,-28.603387,-92.697984)">
    <path
       style="fill:#6ac537"
       d="m 623.28956,694.93969 c -0.30009,-0.78202 1.01865,-4.64715 1.58367,-5.70282 5.26621,-9.83999 20.94916,-62.6743 24.11377,-81.23687 1.3153,-7.71513 3.86839,-16 4.9306,-16 0.41628,0 2.64371,-1.79491 4.94986,-3.9887 2.30615,-2.19378 6.99189,-6.30465 10.41277,-9.13525 3.42087,-2.8306 8.01977,-6.6333 10.21977,-8.45044 5.75449,-4.75305 10.52594,-8.13092 14.25,-10.08805 1.7875,-0.93939 3.25,-2.04071 3.25,-2.44737 C 697,557.05577 716.19311,544 717.41979,544 c 0.43532,0 2.09658,-1.09816 3.69169,-2.44035 7.07256,-5.95117 50.34542,-27.72103 58.12763,-29.24305 1.79349,-0.35076 4.16089,-1.2089 5.26089,-1.90697 3.0924,-1.96246 24.86509,-7.99392 36,-9.9727 16.42936,-2.91967 39.72674,-2.00576 43.95,1.72407 0.5225,0.46145 1.58215,0.839 2.35477,0.839 1.72013,0 11.11326,4.64781 13.18787,6.52548 0.82905,0.75035 3.71547,3.30158 6.41426,5.6694 14.17703,12.43836 20.45555,35.44833 17.68279,64.80512 -1.20214,12.72772 -4.38461,33.46779 -6.17619,40.25 -1.463,5.53837 -3.77219,4.81866 -7.9135,-2.46641 C 879.02865,598.48364 859.8122,587 838.48751,587 c -8.27348,0 -26.63362,2.6809 -37.98751,5.54683 -54.2603,13.69631 -110.63273,44.64338 -157.29971,86.35365 -6.21484,5.55474 -18.96942,16.23955 -19.49208,16.23955 -0.52266,0 9.12565,-9.1019 9.12565,-8.29625 0,0.80565 -0.86466,2.39284 -4.45325,5.17642 -2.42055,1.87755 -4.44018,4.61564 -5.09105,2.91949 z M 116.5,598.98659 C 108.77516,596.59667 101.68167,586.96503 98.466138,574.5 96.877415,568.3413 96.613302,561.67866 96.268584,519.06355 96.05309,492.4235 96.120055,469.6578 96.417395,468.4731 97.206731,465.32814 101.91235,460.47152 106.48519,458.08224 110.36245,456.0564 111.77758,456 158.73519,456 L 207,456 l 0,-3.11467 c 0,-5.39303 -4.68629,-12.54975 -9.89986,-15.11867 -4.44685,-2.19113 -5.59982,-2.27168 -34.60014,-2.41737 -16.5,-0.0829 -30.7875,-0.19539 -31.75,-0.25 -3.09358,-0.17552 -2.33533,-7.16432 1.13836,-10.49233 4.12833,-3.9552 7.96266,-4.49797 32.25715,-4.56619 31.23393,-0.0877 41.73654,1.74256 49.84985,8.68725 5.96228,5.1035 8.98253,11.99425 8.99487,20.52198 l 0.01,6.75 9.42804,0 9.42805,0 0.59823,-5.75 c 1.50997,-14.51328 6.39691,-22.06512 17.04568,-26.34086 l 6,-2.40914 45.83612,0 45.83613,0 2.41387,2.80576 c 1.6751,1.94705 2.41388,4.02049 2.41388,6.77475 0,3.33513 -0.4076,4.12396 -2.55227,4.93936 -1.50434,0.57195 -20.28872,0.97623 -45.75,0.98465 -23.75875,0.008 -44.91813,0.42007 -47.02084,0.91605 C 260.07963,439.47671 256,445.01762 256,452.42179 l 0,3.48603 46.75,0.29609 46.75,0.29609 4,2.62029 c 5.62341,3.68375 7.27002,5.7947 9.52533,12.21146 1.86271,5.29975 1.97467,8.39085 1.97467,54.52082 0,54.22969 0.28433,51.98616 -6.42876,50.72677 -3.68497,-0.6913 -8.22544,-5.1597 -9.05007,-8.90641 -0.26304,-1.19511 -0.60041,-10.27293 -0.74971,-20.17293 -0.26576,-17.62224 -0.32779,-18.08658 -2.95537,-22.12543 -7.92912,-12.18784 -15.63455,-11.09033 -22.5164,3.20707 -1.92819,4.00591 -4.14463,7.52862 -4.92543,7.82824 C 316.51367,537.12385 313,533.56086 313,530.96016 c 0,-2.3959 -3.46615,-9.49494 -5.84208,-11.9652 -4.53209,-4.71202 -9.84311,-4.81363 -15.21779,-0.29113 -4.72765,3.97805 -6.25261,7.89056 -6.35171,16.29617 -0.0692,5.86988 0.35739,8.26072 1.9627,11 2.6382,4.50178 9.22248,8.16217 14.83466,8.24701 5.79604,0.0876 7.0582,2.04546 5.48598,8.50975 -1.80988,7.44148 -3.26546,8.55766 -10.41695,7.98798 -12.83074,-1.02208 -22.37051,-10.03883 -26.4199,-24.97143 -1.84614,-6.80784 -0.88861,-20.81493 1.92116,-28.10338 3.03455,-7.87155 11.00891,-15.92008 17.35714,-17.51858 11.10621,-2.79657 19.25598,-0.73009 25.7395,6.52661 l 3.41481,3.82204 2.64121,-4.99221 c 2.2475,-4.24804 3.29338,-5.18656 7.01624,-6.29604 5.60825,-1.67135 9.98094,-0.47303 15.37503,4.21347 l 4,3.47528 0.30534,-11.20025 c 0.38536,-14.13511 -0.33062,-19.03662 -3.28213,-22.46899 l -2.34862,-2.73126 -43.20982,-0.28113 -43.20983,-0.28113 0.80455,2.78113 c 0.4425,1.52962 0.95966,25.38204 1.14923,53.00538 l 0.34468,50.22424 -2.45453,0.61605 c -4.71276,1.18283 -10.69714,-2.34423 -12.83478,-7.56454 -0.62712,-1.53147 -1.14549,-19.51048 -1.33803,-46.408 -0.22305,-31.15947 -0.66178,-44.74686 -1.51104,-46.79716 -2.36703,-5.71452 -3.01962,-5.79479 -47.11536,-5.79537 l -40.29966,-5.3e-4 0.21968,36.75053 c 0.12083,20.21279 0.49616,40.4322 0.83407,44.93201 0.58542,7.79592 0.74398,8.22666 3.36458,9.1402 2.75639,0.96089 15.95909,-1.22534 17.08167,-2.82855 0.275,-0.39273 1.9318,-1.44754 3.68178,-2.344 6.57422,-3.36778 15.78838,-12.2483 18.71961,-18.04177 2.40557,-4.75453 2.76125,-6.40415 2.22474,-10.31837 -1.43512,-10.47033 -7.19347,-13.86397 -20.54342,-12.10711 -2.13661,0.28118 -2.57239,-0.26246 -3.75296,-4.68188 -1.99849,-7.48128 -1.27614,-9.07348 4.77507,-10.52514 2.85873,-0.68581 8.14953,-1.01075 11.98679,-0.73619 6.11853,0.43778 7.45986,0.9374 12.27345,4.5717 2.9723,2.24411 6.46861,5.79232 7.76957,7.88492 2.12948,3.42527 2.36537,4.95159 2.36537,15.30471 0,10.68585 -0.20692,11.92144 -2.92285,17.45296 -4.58614,9.34058 -15.59621,19.55613 -26.91123,24.96921 -8.83695,4.22759 -12.18673,5.22096 -25.16592,7.46296 -12.43874,2.14864 -15.42717,2.0815 -18.32696,-0.41176 L 138.5,574.17506 138,525.33753 c -0.36466,-35.61786 -0.82801,-49.40945 -1.71178,-50.95038 -1.94579,-3.39265 -6.12922,-4.4959 -15.84608,-4.17889 L 111.5,470.5 l -0.28003,42 c -0.33419,50.12226 0.41166,60.65079 4.74244,66.94537 3.65459,5.31176 6.89029,6.55463 17.06437,6.55463 9.3084,0 10.81486,1.07188 8.66116,6.16262 -2.55076,6.02931 -4.94001,7.31303 -14.04222,7.54475 -4.48014,0.11405 -9.49572,-0.2103 -11.14572,-0.72078 z M 658.59954,522.75 c -0.28765,-2.3375 -0.79458,-8.075 -1.12652,-12.75 -0.91749,-12.92209 -3.25856,-28.71493 -7.02667,-47.40197 -1.87449,-9.29609 -3.15851,-17.89671 -2.85336,-19.11249 0.87817,-3.49893 22.899,-24.48695 36.96589,-35.23216 14.79411,-11.30069 23.80987,-17.04759 37.21602,-23.72254 13.37764,-6.66075 27.87672,-11.72347 40.2251,-14.04562 13.11573,-2.46645 33.36366,-2.56152 42,-0.19721 14.94859,4.09237 27.57095,12.17638 40.62806,26.0203 C 852.74185,404.91102 864,419.54962 864,421.497 c 0,0.62853 1.25961,2.55363 2.79912,4.278 2.85188,3.19431 18.80619,35.4208 19.38357,38.87126 0.62129,3.71288 -2.94499,-0.6644 -7.77828,-6.22745 -5.08977,-5.85827 -13.88569,-12.65411 -21.05215,-16.26515 -18.03158,-9.08578 -44.02722,-8.36253 -72.85226,2.02687 -6.05,2.18061 -11.9,4.23008 -13,4.55439 -1.1,0.32431 -2.225,0.87218 -2.5,1.2175 -0.275,0.34532 -4.02299,2.32813 -8.32886,4.40624 -23.65139,11.41471 -59.23691,36.2191 -86.88831,60.5643 C 666.23839,521.56533 659.85346,527 659.5941,527 c -0.25935,0 -0.7069,-1.9125 -0.99456,-4.25 z M 624.45516,381.85872 c -2.24733,-7.0807 -13.87343,-29.04199 -23.95516,-45.25044 -3.3,-5.30543 -6.74694,-11.02092 -7.65986,-12.7011 -0.91292,-1.68018 -2.33575,-3.58414 -3.16183,-4.23102 -0.82609,-0.64689 -2.43962,-2.9657 -3.58562,-5.15291 -1.9811,-3.78105 -1.99774,-4.06023 -0.33816,-5.67331 1.11143,-1.08028 6.2861,-2.49626 14.24547,-3.89808 15.64391,-2.75522 52.71587,-3.83484 68.95411,-2.00809 24.47826,2.75372 48.71736,8.24294 64.29589,14.56053 2.65575,1.07699 2.09295,3.37875 -1,4.08983 -8.37154,1.92465 -21.39234,6.00205 -29.03667,9.09269 -4.79233,1.93757 -10.06333,4.04677 -11.71333,4.68713 -6.17869,2.39793 -29.17736,16.79363 -34,21.28184 -1.1,1.02372 -4.75754,4.23964 -8.12787,7.1465 -3.37033,2.90686 -8.9843,8.64051 -12.47549,12.74145 -5.00199,5.87562 -6.92149,7.45626 -9.05474,7.45626 -1.8884,0 -2.91266,-0.64759 -3.38674,-2.14128 z"
       id="path3015"
       inkscape:connector-curvature="0"
       sodipodi:nodetypes="scsssssssssssssssssssssssssssssssscsssssssccccsscccsssssscccssssssssssssssssssssscssscsscccsscssssscssscsssssssssssssscssscssssssssssssssssssssssssssssssssssssssssssss" />
    <path
       style="fill:#6ac537;fill-opacity:1"
       d="m 622.3068,696.26819 c 0.35009,-0.825 0.91431,-2.2875 1.25381,-3.25 0.66185,-1.87639 1.93561,-2.28455 2.79417,-0.89536 0.29051,0.47005 -0.64466,1.93255 -2.07816,3.25 -1.43349,1.31745 -2.31991,1.72036 -1.96982,0.89536 z"
       id="path3097"
       inkscape:connector-curvature="0" />
    <path
       style="fill:#717476"
       d="m 405.35233,578.01846 c -1.18122,-0.48307 -2.52073,-1.47234 -2.97669,-2.19838 -0.45595,-0.72605 -0.68364,-22.03599 -0.50598,-47.35543 0.3386,-48.25396 0.0437,-52.42072 -3.96749,-56.05585 -1.86472,-1.6899 -4.04413,-1.94502 -19.00422,-2.22465 C 365.48815,469.9335 362,469.5881 362,468.51088 c 0,-3.47388 -7.99835,-10.12526 -14,-11.64232 -1.375,-0.34756 25.23936,-0.68517 59.14301,-0.75025 48.33185,-0.0928 61.73627,-0.38823 62.0749,-1.36831 1.05182,-3.0442 -1.49034,-9.95209 -5.03169,-13.67278 -4.76022,-5.00127 -6.69568,-5.24102 -43.83863,-5.43025 L 391.5,435.5 l -0.33672,-2.38099 c -0.66869,-4.72845 0.75984,-8.64238 3.81252,-10.44564 2.52179,-1.48966 6.5931,-1.83673 27.24452,-2.32248 34.25018,-0.80563 45.35171,0.99931 54.23373,8.81758 6.02793,5.30599 7.38464,8.14555 8.8978,18.62288 l 1.25774,8.70865 61.24119,0 61.24119,0 -0.61371,2.5 c -1.97551,8.04745 -6.52704,10.31028 -21.7619,10.81909 -11.20957,0.37438 -11.75299,0.49014 -11.15438,2.37619 0.3461,1.09046 0.92374,4.03428 1.28364,6.54184 l 0.65438,4.55919 6.10172,1.66992 c 9.48044,2.59462 14.99204,6.33775 19.42021,13.189 6.02236,9.31776 7.42112,20.24133 3.54694,27.69974 -1.65945,3.1947 -5.84964,6.37983 -10.50574,7.98582 -4.80759,1.65825 -5.69783,0.42077 -4.24018,-5.89413 1.61581,-7.00007 1.47525,-12.79366 -0.45542,-18.77165 -1.98907,-6.15879 -5.83495,-10.05205 -10.71143,-10.84339 l -3.6561,-0.5933 0,40.25584 0,40.25584 -3.19773,-0.63955 c -4.25447,-0.85089 -7.6422,-3.16946 -9.59009,-6.56348 -1.48319,-2.58429 -2.17614,-2.82601 -9.7762,-3.4102 -10.41009,-0.80018 -26.77149,-4.06791 -33.76188,-6.74298 -15.25942,-5.83945 -24.80545,-22.83764 -23.45161,-41.75925 0.60882,-8.50912 4.02644,-15.18834 11.28337,-22.05164 4.16295,-3.93714 6.72446,-5.38398 13.08518,-7.391 7.30712,-2.30563 20.62409,-4.69285 34.65896,-6.21301 6.15521,-0.66669 6.21825,-0.75578 4.81451,-6.80403 -1.62699,-7.01015 2.90993,-6.60787 -74.9215,-6.64306 -66.67257,-0.0301 -70.31211,0.0598 -69.5,1.7182 0.47135,0.9625 0.98727,21.41282 1.14651,45.44515 0.28373,42.82258 0.32982,43.70795 2.30805,44.33582 2.19682,0.69724 10.36129,-0.99486 15.85142,-3.28524 9.2971,-3.87858 20.59918,-13.50529 24.25941,-20.66332 2.83161,-5.53757 2.21417,-15.43925 -1.18861,-19.06134 -3.35807,-3.57451 -9.17221,-4.97192 -14.79529,-3.55602 -2.45728,0.61875 -4.62203,0.97075 -4.81057,0.78222 -0.74009,-0.74009 -3.28945,-13.13967 -2.84828,-13.85349 0.93695,-1.51602 12.04473,-3.1186 18.19416,-2.62499 6.83531,0.54868 11.14409,2.77946 17.02897,8.81644 7.17877,7.3643 8.34022,23.95489 2.51426,35.91477 -6.36006,13.05633 -19.89452,23.98346 -36.30304,29.30946 -11.15644,3.62124 -29.01049,6.19646 -32.64767,4.709 z"
       id="path3063"
       inkscape:connector-curvature="0" />
    <path
       style="fill:#ffffff"
       d="m 561.76633,524.75 0.26634,-26.75 -5.88535,0 c -6.81153,0 -21.58932,2.38033 -28.20544,4.54319 -5.49985,1.79794 -12.55608,8.62481 -13.95454,13.50096 -1.2933,4.50946 -1.24384,10.48617 0.1279,15.45585 1.72034,6.23264 9.94024,13.82898 17.23813,15.93045 6.87148,1.97869 22.84643,4.47044 27.14663,4.23429 l 3,-0.16474 0.26633,-26.75 z"
       id="path3061"
       inkscape:connector-curvature="0" />
    <path
       style="fill:#717476"
       d="m 658,525.5 c 0,-1.375 0.17254,-2.5 0.38342,-2.5 0.21089,0 0.59848,1.125 0.86133,2.5 0.26285,1.375 0.0903,2.5 -0.38342,2.5 C 658.3876,528 658,526.875 658,525.5 z"
       id="path3051"
       inkscape:connector-curvature="0" />
    <path
       style="fill:#6ac537;fill-opacity:1"
       d="m 883.53179,462.62356 c -3.31887,-5.24272 -3.53663,-6.43199 -1.03179,-5.63489 0.71559,0.22771 5.4242,10.96707 4.96879,11.33277 -0.12033,0.0966 -1.89199,-2.46741 -3.937,-5.69788 z"
       id="path3049"
       inkscape:connector-curvature="0" />
    <path
       style="fill:#717476"
       d="m 129.27083,435.39583 c 0.33229,-0.33229 1.19479,-0.36781 1.91667,-0.0789 0.79773,0.31922 0.56078,0.55618 -0.60417,0.60416 -1.05416,0.0434 -1.64479,-0.19293 -1.3125,-0.52522 z"
       id="path3047"
       inkscape:connector-curvature="0" />
  </g>
</svg>
