<svg width="9" height="12" viewBox="0 0 9 12" fill="none" xmlns="http://www.w3.org/2000/svg">
<path d="M2.42105 3.06273L2.42105 4.5125H1.40526C1.24358 4.5125 1.08926 4.57791 0.976031 4.69315C0.862923 4.80828 0.8 4.96369 0.8 5.125C0.8 5.28631 0.862924 5.44172 0.976031 5.55685C1.08926 5.67209 1.24358 5.7375 1.40526 5.7375H2.42105V10.4875C2.42105 10.6488 2.48398 10.8042 2.59708 10.9193C2.71031 11.0346 2.86464 11.1 3.02632 11.1C6.05869 11.1 8.49474 8.40212 8.49474 5.125C8.49474 4.27381 7.63965 3.6875 6.67368 3.6875C5.70772 3.6875 4.85263 4.27381 4.85263 5.125C4.85263 5.28631 4.91556 5.44172 5.02866 5.55685C5.14189 5.67209 5.29622 5.7375 5.4579 5.7375C5.61957 5.7375 5.7739 5.67209 5.88713 5.55685C5.99807 5.44392 6.06073 5.29225 6.06309 5.13425C6.0648 5.13083 6.06857 5.12429 6.07626 5.11471C6.09508 5.09123 6.12958 5.05997 6.18363 5.02844C6.29103 4.96581 6.45831 4.9125 6.67368 4.9125C6.88906 4.9125 7.05634 4.96581 7.16374 5.02844C7.21779 5.05997 7.25229 5.09123 7.27111 5.11471C7.27869 5.12415 7.28246 5.13063 7.2842 5.1341C7.28016 7.53607 5.67654 9.50056 3.63158 9.82714V5.7375H3.83684C3.99852 5.7375 4.15285 5.67209 4.26607 5.55685C4.37918 5.44172 4.44211 5.28631 4.44211 5.125C4.44211 4.96369 4.37918 4.80828 4.26607 4.69315C4.15285 4.57791 3.99852 4.5125 3.83684 4.5125H3.63158V3.0625L3.63158 3.06228C3.63092 2.46362 3.39701 1.88898 2.98009 1.46461C2.56304 1.04011 1.99684 0.800676 1.40549 0.8H1.40526C1.24358 0.8 1.08926 0.865406 0.976031 0.980654C0.862924 1.09578 0.8 1.25119 0.8 1.4125C0.8 1.57381 0.862924 1.72922 0.976031 1.84435C1.0892 1.95954 1.24343 2.02494 1.40503 2.025C1.67324 2.02532 1.93112 2.13388 2.12187 2.32804C2.31273 2.5223 2.42071 2.78641 2.42105 3.06263C2.42105 3.06266 2.42105 3.0627 2.42105 3.06273Z" fill="#8E8E8E" stroke="#8E8E8E" stroke-width="0.4"/>
</svg>
